<svg xmlns="http://www.w3.org/2000/svg" xmlns:xlink="http://www.w3.org/1999/xlink" version="1.1" width="256" height="256" viewBox="0 0 256 256" xml:space="preserve">
<g style="stroke: none; stroke-width: 0; stroke-dasharray: none; stroke-linecap: butt; stroke-linejoin: miter; stroke-miterlimit: 10; fill: none; fill-rule: nonzero; opacity: 1;" transform="translate(1.4065934065934016 1.4065934065934016) scale(2.81 2.81)">
	<path d="M 45 90 c -0.411 0 -0.822 -0.063 -1.218 -0.19 C 21.967 82.833 6.731 60.48 6.731 35.452 V 17.004 c 0 -2.209 1.791 -4 4 -4 c 4.965 0 9.004 -4.039 9.004 -9.004 c 0 -2.209 1.791 -4 4 -4 h 42.529 c 2.209 0 4 1.791 4 4 c 0 4.965 4.039 9.004 9.004 9.004 c 2.209 0 4 1.791 4 4 v 18.448 c 0 25.029 -15.235 47.381 -37.05 54.358 C 45.822 89.937 45.411 90 45 90 z M 14.731 20.529 v 14.923 c 0 21.114 12.382 39.96 30.269 46.327 c 17.886 -6.366 30.269 -25.213 30.269 -46.327 V 20.529 C 69.1 19.036 64.232 14.169 62.74 8 H 27.26 C 25.767 14.169 20.9 19.036 14.731 20.529 z" style="stroke: none; stroke-width: 1; stroke-dasharray: none; stroke-linecap: butt; stroke-linejoin: miter; stroke-miterlimit: 10; fill: rgb(0,0,0); fill-rule: nonzero; opacity: 1;" transform=" matrix(1 0 0 1 0 0) " stroke-linecap="round"/>
</g>
</svg>