<svg xmlns="http://www.w3.org/2000/svg" xmlns:xlink="http://www.w3.org/1999/xlink" version="1.1" width="256" height="256" viewBox="0 0 256 256" xml:space="preserve">
<g style="stroke: none; stroke-width: 0; stroke-dasharray: none; stroke-linecap: butt; stroke-linejoin: miter; stroke-miterlimit: 10; fill: none; fill-rule: nonzero; opacity: 1;" transform="translate(1.4065934065934016 1.4065934065934016) scale(2.81 2.81)">
	<path d="M 90 41 h -5.68 C 82.441 22.395 67.605 7.558 49 5.68 V 0 h -8 v 5.68 C 22.395 7.558 7.558 22.395 5.68 41 H 0 v 8 h 5.68 C 7.558 67.605 22.395 82.441 41 84.32 V 90 h 8 v -5.68 C 67.605 82.441 82.441 67.605 84.32 49 H 90 V 41 z M 49 76.259 v -5.215 h -8 v 5.215 C 26.813 74.453 15.547 63.187 13.741 49 h 5.215 v -8 h -5.215 C 15.547 26.813 26.813 15.547 41 13.741 v 5.215 h 8 v -5.215 C 63.187 15.547 74.453 26.813 76.259 41 h -5.215 v 8 h 5.215 C 74.453 63.187 63.187 74.453 49 76.259 z" style="stroke: none; stroke-width: 1; stroke-dasharray: none; stroke-linecap: butt; stroke-linejoin: miter; stroke-miterlimit: 10; fill: rgb(0,0,0); fill-rule: nonzero; opacity: 1;" transform=" matrix(1 0 0 1 0 0) " stroke-linecap="round"/>
	<path d="M 45 61.106 c -8.881 0 -16.106 -7.226 -16.106 -16.106 c 0 -8.881 7.225 -16.106 16.106 -16.106 c 8.881 0 16.106 7.225 16.106 16.106 C 61.106 53.881 53.881 61.106 45 61.106 z M 45 36.894 c -4.47 0 -8.106 3.637 -8.106 8.106 S 40.53 53.106 45 53.106 S 53.106 49.47 53.106 45 S 49.47 36.894 45 36.894 z" style="stroke: none; stroke-width: 1; stroke-dasharray: none; stroke-linecap: butt; stroke-linejoin: miter; stroke-miterlimit: 10; fill: rgb(0,0,0); fill-rule: nonzero; opacity: 1;" transform=" matrix(1 0 0 1 0 0) " stroke-linecap="round"/>
</g>
</svg>